<?xml version="1.0" encoding="UTF-8"?>
<svg version="1.1" xmlns="http://www.w3.org/2000/svg" width="180" height="180">
<path d="M0 0 C0.66837891 0.28407715 1.33675781 0.5681543 2.02539062 0.86083984 C13.49675393 5.81975861 24.58266747 12.62068661 33 22 C33 22.66 33 23.32 33 24 C33.99 24.33 34.98 24.66 36 25 C50.2892708 40.74671306 57.38083904 61.81706151 57.31567383 82.69165039 C57.31252137 84.79821969 57.336015 86.9033697 57.36132812 89.00976562 C57.41687002 100.48249584 55.45524219 110.71595113 50.6875 121.1875 C50.38191162 121.86893066 50.07632324 122.55036133 49.76147461 123.25244141 C47.32615056 128.55266677 44.54740234 133.35772039 41 138 C40.40574219 138.80695313 39.81148437 139.61390625 39.19921875 140.4453125 C25.97895363 157.77207279 4.86412468 171.7530741 -17 175 C-21.58458939 175.26949632 -26.15605137 175.32996301 -30.74658203 175.31567383 C-32.86413234 175.31251621 -34.9802779 175.33603353 -37.09765625 175.36132812 C-45.13276317 175.39961602 -52.3621767 174.69556264 -60 172 C-61.03447266 171.64748169 -61.03447266 171.64748169 -62.08984375 171.2878418 C-73.70592963 167.14664791 -84.92537432 161.50472166 -94 153 C-94 152.34 -94 151.68 -94 151 C-94.59039062 150.74347656 -95.18078125 150.48695313 -95.7890625 150.22265625 C-108.79308056 143.03138831 -117.45038498 122.11881295 -121.55639648 108.51147461 C-125.94698916 90.9279305 -125.03976604 68.7256559 -118 52 C-117.71060547 51.30922363 -117.42121094 50.61844727 -117.12304688 49.90673828 C-113.05467446 40.52400042 -107.92488059 31.58576131 -101 24 C-100.34 24 -99.68 24 -99 24 C-98.731875 23.360625 -98.46375 22.72125 -98.1875 22.0625 C-97 20 -97 20 -94 19 C-93.67 18.01 -93.34 17.02 -93 16 C-85.197632 8.91978276 -75.58599652 4.16060456 -66 0 C-65.38543945 -0.27537598 -64.77087891 -0.55075195 -64.13769531 -0.83447266 C-45.66858504 -8.74909675 -18.25560482 -8.13230447 0 0 Z " fill="#8335D2" transform="translate(123,5)"/>
<path d="M0 0 C2.47793487 0.22316998 3.69329039 0.71599142 5.52392578 2.41113281 C5.9929834 3.00249023 6.46204102 3.59384766 6.9453125 4.203125 C7.46480469 4.85410156 7.98429687 5.50507813 8.51953125 6.17578125 C9.04933594 6.86027344 9.57914062 7.54476563 10.125 8.25 C10.66253906 8.91902344 11.20007813 9.58804687 11.75390625 10.27734375 C14.45612817 13.70734614 16.67392385 16.77620188 18 21 C17.43152344 21.43570313 16.86304688 21.87140625 16.27734375 22.3203125 C11.39506682 26.08594179 6.64628915 29.94685415 2 34 C2.5775 35.0725 3.155 36.145 3.75 37.25 C4.51380829 38.82671854 5.26265931 40.41073188 6 42 C6.3815625 42.80179688 6.763125 43.60359375 7.15625 44.4296875 C12.59487018 57.83200151 11.78207991 74.40912869 6.54296875 87.734375 C0.66683203 100.17095803 -6.6770551 108.59317435 -19.421875 114.08984375 C-28.85650536 117.42055416 -39.2224028 117.15100698 -48.4375 113.3203125 C-58.290438 108.24364627 -66.55136953 99.65597173 -70.3359375 89.125 C-72.79949419 77.53179205 -72.27140973 65.25938309 -66 55 C-60.76975427 47.08158328 -52.4796995 41.64349033 -45 36 C-53.49445517 35.74007175 -59.83874688 37.88552112 -66.375 43.375 C-72.64702538 49.31824986 -75.94496901 55.56491216 -76.2784729 64.29649353 C-76.30175739 65.91361518 -76.31461679 67.53090962 -76.31884766 69.14819336 C-76.32889328 70.03679047 -76.3389389 70.92538757 -76.34928894 71.84091187 C-76.38000412 74.75721634 -76.39712353 77.67342951 -76.4140625 80.58984375 C-76.43278353 82.62008951 -76.45235764 84.65032757 -76.4727478 86.68055725 C-76.52397612 92.00859018 -76.56365159 97.33664831 -76.60089111 102.66479492 C-76.64098912 108.10797309 -76.692055 113.55104727 -76.7421875 118.99414062 C-76.83883665 129.66268727 -76.92327661 140.33129275 -77 151 C-80.82623932 150.29811712 -83.75517375 149.29815544 -87.1875 147.4375 C-88.04730469 146.98246094 -88.90710938 146.52742187 -89.79296875 146.05859375 C-90.85128906 145.37925781 -91.90960938 144.69992188 -93 144 C-93.8118576 143.56802307 -94.62371521 143.13604614 -95.46017456 142.690979 C-100.07597436 139.78771257 -102.61018672 137.61809958 -103.91566467 132.19911194 C-104.37251456 127.38168265 -104.25861458 122.56997878 -104.15234375 117.73828125 C-104.14637187 115.94240651 -104.14412166 114.14651593 -104.145401 112.35063171 C-104.13759884 108.59156003 -104.09636397 104.83488442 -104.02905273 101.07641602 C-103.94440448 96.29282655 -103.92497355 91.51187843 -103.92877865 86.72762775 C-103.92740862 83.01844211 -103.89981628 79.30981766 -103.86377144 75.60082054 C-103.84801471 73.83926822 -103.83804306 72.07765314 -103.8343029 70.31603432 C-103.75438499 52.34045534 -98.95982128 38.27912748 -86.4375 24.8125 C-74.55997679 13.54500064 -61.46512578 9.04892304 -45.125 8.6875 C-36.66868796 8.92497885 -29.89791791 10.80001284 -22.26171875 14.390625 C-20.02395827 15.24072983 -20.02395827 15.24072983 -18.07006836 14.19628906 C-16.1133806 13.06552246 -14.38742278 11.87007877 -12.6171875 10.46875 C-12.00746094 9.98792969 -11.39773437 9.50710937 -10.76953125 9.01171875 C-10.14433594 8.51285156 -9.51914063 8.01398437 -8.875 7.5 C-8.24207031 7.00113281 -7.60914062 6.50226562 -6.95703125 5.98828125 C-4.52740963 4.064186 -2.1938523 2.1938523 0 0 Z " fill="#FDFCFE" transform="translate(132,22)"/>
<path d="M0 0 C3.75395931 7.97716353 4.70580169 16.97611166 1.75 25.4375 C-1.56851179 32.19304186 -4.30601026 35.65300513 -11 39 C-14.88933523 39.44196991 -16.71594267 39.15595304 -20.1875 37.25 C-23.544157 34.5646744 -25.71617198 32.71575316 -26.43359375 28.37890625 C-26.43488281 27.44949219 -26.43617187 26.52007812 -26.4375 25.5625 C-26.45683594 24.63566406 -26.47617188 23.70882812 -26.49609375 22.75390625 C-25.37022031 16.50397889 -19.8374494 13.06525397 -15.0625 9.4375 C-13.84494658 8.49883475 -12.62749685 7.56003499 -11.41015625 6.62109375 C-10.8289502 6.17878418 -10.24774414 5.73647461 -9.64892578 5.28076172 C-8.1483055 4.11519258 -6.69411455 2.89046045 -5.24609375 1.66015625 C-3 0 -3 0 0 0 Z " fill="#8538D2" transform="translate(113,73)"/>
</svg>
